<?xml version="1.0" encoding="utf-8"?>
<!-- Generator: Adobe Illustrator 19.2.0, SVG Export Plug-In . SVG Version: 6.00 Build 0)  -->
<svg version="1.1" id="Layer_1" xmlns="http://www.w3.org/2000/svg" xmlns:xlink="http://www.w3.org/1999/xlink" x="0px" y="0px"
	 viewBox="0 0 140.7 182.5" style="enable-background:new 0 0 140.7 182.5;" xml:space="preserve">
<style type="text/css">
	.st0{fill:#081E54;}
</style>
<g>
	<path class="st0" d="M130.1,9.2c-7-6.1-16-9.2-27.1-9.2C88.2,0,75.6,4.3,65,12.8S48.5,32.1,47.2,45H30.3c-5.8,0-10.3,1.2-13.4,3.7
		c-3.2,2.5-4.8,6-4.8,10.5c0,6.2,4.5,9.4,13.6,9.4h26.6c2.7,5.2,7.2,11.2,13.4,18.1c8.9,9.9,14.7,17.2,17.4,22c2.7,4.7,4,10,4,15.8
		c0,9.1-3.3,17.1-9.9,23.8s-14.4,10.1-23.4,10.1c-8.1,0-14.9-2.5-20.1-7.6c-5.3-5.1-7.9-11.5-7.9-19.3c0-4.9,1.5-9.9,4.5-15
		s6.8-9,11.3-11.8c7.2-4.5,8.4-8.8,8.4-13.1c0-3.2-1.1-5.8-3.3-7.9c-2.2-2-5.1-3.1-8.7-3.1c-5.4,0-10.3,3.1-15.2,6.6
		c-15.2,12-22.8,27-22.8,45c0,14.7,4.9,26.8,14.7,36.2s22.3,14.1,37.6,14.1c19.8,0,35.7-7,48-21c8.9-10.2,13.4-22,13.4-35.5
		c0-13.9-5.1-27.1-15.2-39.6l-5.2-6.3c0,0-11-13.2-15-18.3c-4.8-6.2-7.2-11.8-5.7-18.3l0,0c0.8-5,3.9-9.4,9.1-13.4
		c5.8-4.4,12.3-6.6,19.3-6.6c4.5,0,8.2,0.9,10.9,2.8c2.7,1.8,4.1,4.3,4.1,7.3c0,7.7-6.7,11.6-20,11.6h-1.9c-3.4,0-10.8,0.7-8,8.4
		c1.7,4.5,5.8,9.7,9.5,13.6c0.9,0.9,2.1,1.5,3.4,1.4c11.2-0.4,19.6-2.4,25.1-5.8c11.1-6.9,16.6-16.8,16.6-29.7
		C140.5,23.2,137,15.3,130.1,9.2z"/>
</g>
</svg>
