<?xml version="1.0" standalone="no"?>
<!DOCTYPE svg PUBLIC "-//W3C//DTD SVG 20010904//EN"
 "http://www.w3.org/TR/2001/REC-SVG-20010904/DTD/svg10.dtd">
<svg version="1.0" xmlns="http://www.w3.org/2000/svg"
 width="732.000000pt" height="732.000000pt" viewBox="0 0 732.000000 732.000000"
 preserveAspectRatio="xMidYMid meet">
<metadata>
Created by potrace 1.11, written by Peter Selinger 2001-2013
</metadata>
<g transform="translate(0.000000,732.000000) scale(0.100000,-0.100000)"
fill="#000000" stroke="none">
<path d="M4736 7303 c-2 -2 -32 -6 -67 -9 -59 -5 -104 -11 -104 -14 0 -1 -16
-3 -35 -5 -52 -7 -95 -13 -95 -15 0 -2 -19 -6 -61 -14 -17 -3 -71 -17 -120
-32 -49 -14 -93 -27 -99 -28 -5 -2 -23 -9 -40 -15 -16 -7 -34 -14 -40 -15 -5
-1 -27 -10 -49 -19 -21 -9 -40 -17 -42 -17 -11 0 -189 -90 -254 -128 -278
-164 -466 -333 -678 -607 -38 -50 -136 -224 -176 -315 -44 -101 -92 -252 -112
-355 -4 -22 -9 -47 -11 -55 -1 -8 -6 -40 -9 -72 -4 -31 -10 -61 -14 -68 -5 -8
-116 -11 -396 -13 -442 -1 -530 -10 -669 -64 -103 -40 -204 -121 -260 -209
-31 -48 -47 -83 -43 -94 1 -3 -4 -15 -11 -27 -25 -48 -33 -184 -14 -266 23
-104 83 -175 187 -222 64 -29 99 -40 176 -52 14 -3 297 -6 630 -7 502 -3 606
-6 612 -17 48 -82 112 -185 117 -189 4 -3 10 -12 13 -20 6 -16 155 -216 189
-255 10 -11 64 -74 120 -140 56 -66 114 -133 129 -150 15 -16 51 -57 80 -90
29 -33 65 -74 80 -90 105 -119 291 -349 355 -440 27 -39 52 -72 55 -75 17 -14
104 -166 140 -243 35 -77 73 -197 95 -307 4 -19 9 -114 10 -211 3 -185 -8
-264 -55 -421 -113 -376 -439 -721 -821 -872 -80 -31 -188 -57 -299 -72 -57
-8 -275 -8 -315 0 -16 4 -48 9 -70 12 -170 22 -380 115 -513 228 -34 29 -135
134 -163 171 -13 17 -27 32 -31 33 -5 2 -8 9 -8 15 0 6 -6 18 -14 26 -30 33
-108 209 -121 271 -2 8 -8 33 -13 55 -16 61 -25 151 -25 245 0 84 11 208 20
223 2 4 7 20 9 35 23 128 163 405 269 531 99 119 204 213 337 300 193 127 287
244 318 396 83 402 -257 668 -675 528 -27 -10 -52 -18 -55 -18 -15 -3 -87 -41
-102 -54 -10 -8 -18 -11 -18 -8 0 8 -229 -145 -261 -174 -14 -13 -41 -36 -60
-51 -61 -47 -234 -221 -311 -313 -147 -175 -282 -401 -358 -596 -18 -46 -33
-88 -34 -94 -1 -5 -4 -14 -8 -20 -4 -8 -41 -140 -52 -190 -20 -89 -29 -145
-46 -285 -8 -68 -6 -457 3 -500 3 -14 11 -59 17 -100 6 -41 16 -91 20 -110 5
-19 11 -46 13 -60 8 -43 30 -114 39 -125 4 -5 8 -17 8 -27 0 -20 81 -214 115
-273 58 -103 69 -123 98 -165 90 -134 268 -326 392 -425 28 -22 55 -44 62 -50
29 -24 31 -26 161 -106 142 -88 338 -172 502 -216 89 -24 175 -42 235 -49 22
-2 46 -7 53 -9 32 -11 193 -20 377 -19 203 0 295 5 420 24 130 20 152 24 220
41 22 5 47 11 56 13 9 3 49 14 90 27 41 12 79 23 84 24 6 1 23 6 38 13 16 7
34 12 41 12 6 0 16 4 21 8 6 5 26 15 45 22 47 17 224 101 230 109 3 3 23 15
45 26 55 28 258 165 268 182 4 7 14 13 22 13 7 0 15 4 17 9 2 4 26 27 53 51
120 102 262 251 353 369 24 31 48 63 55 72 27 35 57 79 57 83 0 3 13 24 29 48
49 73 95 166 171 343 11 25 51 145 55 165 2 8 11 42 19 75 9 33 19 72 21 88 3
15 8 42 11 60 28 163 37 390 21 582 -9 115 -12 131 -52 326 -8 39 -49 171 -77
249 -67 186 -161 367 -290 563 -67 101 -175 246 -197 267 -4 3 -24 28 -46 55
-22 28 -44 55 -50 61 -5 6 -21 26 -35 44 -14 18 -32 40 -40 49 -9 9 -47 54
-85 101 -39 47 -74 90 -80 96 -22 24 -91 108 -105 128 -8 12 -24 31 -35 43
-11 12 -24 28 -30 35 -5 7 -35 43 -65 79 -30 36 -66 81 -80 99 -14 18 -30 38
-36 44 -5 6 -38 47 -72 91 -34 44 -66 85 -70 90 -75 96 -161 264 -188 365 -17
65 -23 239 -10 290 3 14 8 39 12 55 15 75 75 216 104 245 3 3 17 23 33 45 34
50 144 158 217 213 30 23 60 46 65 50 36 27 233 132 248 132 3 0 18 5 34 12
15 6 31 12 36 13 4 2 8 3 10 5 1 1 9 3 17 5 8 1 33 7 55 13 102 28 165 35 315
35 115 1 148 -2 220 -18 14 -4 34 -7 45 -9 21 -3 137 -57 169 -78 157 -104
208 -294 126 -473 -18 -40 -96 -128 -135 -153 -147 -92 -319 -127 -652 -132
-73 -1 -152 -7 -175 -12 -24 -5 -52 -11 -63 -14 -59 -12 -134 -74 -150 -125
-11 -34 -7 -104 9 -159 8 -29 68 -163 76 -170 3 -3 16 -22 28 -43 12 -20 26
-43 32 -50 5 -6 28 -37 50 -67 57 -79 73 -100 120 -150 23 -25 47 -52 54 -60
6 -9 30 -31 54 -50 42 -33 46 -34 130 -34 106 0 298 17 352 30 14 3 34 6 45 5
11 0 36 4 55 9 19 5 51 12 70 15 32 5 132 30 170 42 8 2 15 4 15 3 0 0 32 11
70 25 120 45 224 102 327 180 14 11 41 31 59 45 49 37 176 168 224 230 116
152 216 383 240 552 3 18 9 60 14 93 9 63 7 315 -3 375 -5 33 -20 106 -32 159
-21 98 -127 333 -165 367 -11 9 -19 23 -19 31 0 7 -4 13 -8 13 -4 0 -15 12
-24 28 -38 62 -266 272 -297 272 -6 0 -11 3 -11 8 0 23 -310 172 -394 188 -10
2 -42 10 -70 18 -28 8 -69 17 -91 21 -22 4 -49 9 -60 11 -72 13 -134 17 -332
19 -123 1 -224 0 -227 -2z"/>
</g>
</svg>
